<?xml version="1.0" encoding="UTF-8"?>
<!DOCTYPE svg PUBLIC "-//W3C//DTD SVG 1.1//EN" "http://www.w3.org/Graphics/SVG/1.1/DTD/svg11.dtd">
<!-- Creator: CorelDRAW X6 -->
<svg xmlns="http://www.w3.org/2000/svg" xml:space="preserve" width="7.7774mm" height="7.3mm" version="1.1" style="shape-rendering:geometricPrecision; text-rendering:geometricPrecision; image-rendering:optimizeQuality; fill-rule:evenodd; clip-rule:evenodd"
viewBox="0 0 112 105"
 xmlns:xlink="http://www.w3.org/1999/xlink">
 <defs>
  <style type="text/css">
   <![CDATA[
    .str0 {stroke:#2B2A29;stroke-width:2.87734}
    .str1 {stroke:#2B2A29;stroke-width:7.19336}
    .fil0 {fill:none}
   ]]>
  </style>
 </defs>
 <g id="Слой_x0020_1">
  <metadata id="CorelCorpID_0Corel-Layer"/>
  <path class="fil0 str0" d="M56 15c-10,0 -18,10 -17,20"/>
  <path class="fil0 str1" d="M81 36c0,11 -4,23 -11,29 0,2 0,10 3,11 14,7 35,6 35,25l-51 0 0 0 -53 0c0,-18 22,-17 35,-24 3,-1 3,-7 3,-11 -8,-6 -13,-19 -13,-31 0,-43 53,-43 53,0z"/>
 </g>
</svg>
