<?xml version="1.0" encoding="UTF-8"?>
<!DOCTYPE svg PUBLIC "-//W3C//DTD SVG 1.1//EN" "http://www.w3.org/Graphics/SVG/1.1/DTD/svg11.dtd">
<!-- Creator: CorelDRAW X6 -->
<svg xmlns="http://www.w3.org/2000/svg" xml:space="preserve" width="8.1068mm" height="7.8618mm" version="1.1" style="shape-rendering:geometricPrecision; text-rendering:geometricPrecision; image-rendering:optimizeQuality; fill-rule:evenodd; clip-rule:evenodd"
viewBox="0 0 60 58"
 xmlns:xlink="http://www.w3.org/1999/xlink">
 <defs>
  <style type="text/css">
   <![CDATA[
    .str1 {stroke:#2B2A29;stroke-width:1.4868}
    .str0 {stroke:#2B2A29;stroke-width:4.46041}
    .fil1 {fill:none}
    .fil0 {fill:#2B2A29;fill-rule:nonzero}
   ]]>
  </style>
 </defs>
 <g id="Слой_x0020_1">
  <metadata id="CorelCorpID_0Corel-Layer"/>
  <path class="fil0" d="M5 19l50 0c1,0 3,1 4,2l0 0c1,1 2,2 2,4l-5 29c0,1 -1,3 -2,4l0 0c-1,1 -2,2 -4,2l-39 0c-1,0 -3,-1 -4,-2 -1,-1 -2,-2 -2,-4l-6 -29c0,-1 1,-3 2,-4l0 0c1,-1 2,-2 4,-2zm50 4l-50 0c0,0 -1,0 -1,0l0 0c0,0 0,1 0,1l6 29c0,0 0,1 0,1 0,0 1,0 1,0l39 0c0,0 1,0 1,0l0 0c0,0 0,-1 0,-1l5 -29c0,0 0,-1 0,-1l0 0c0,0 -1,0 -1,0z"/>
  <line class="fil1 str0" x1="30" y1="21" x2="49" y2= "2" />
  <path class="fil1 str1" d="M21 28l-8 0c-2,0 -2,0 -2,2l1 8"/>
 </g>
</svg>
